<?xml version="1.0" encoding="UTF-8" standalone="no"?>
<!-- Created with Inkscape (http://www.inkscape.org/) -->

<svg
   width="512"
   height="512"
   viewBox="0 0 512 512"
   version="1.1"
   id="svg1"
   inkscape:version="1.4.2 (ebf0e940d0, 2025-05-08)"
   sodipodi:docname="favicon_bg.svg"
   xml:space="preserve"
   xmlns:inkscape="http://www.inkscape.org/namespaces/inkscape"
   xmlns:sodipodi="http://sodipodi.sourceforge.net/DTD/sodipodi-0.dtd"
   xmlns="http://www.w3.org/2000/svg"
   xmlns:svg="http://www.w3.org/2000/svg"><sodipodi:namedview
     id="namedview1"
     pagecolor="#ffffff"
     bordercolor="#000000"
     borderopacity="0.25"
     inkscape:showpageshadow="2"
     inkscape:pageopacity="0.0"
     inkscape:pagecheckerboard="0"
     inkscape:deskcolor="#d1d1d1"
     inkscape:document-units="px"
     inkscape:zoom="1.4142136"
     inkscape:cx="113.84419"
     inkscape:cy="296.98485"
     inkscape:window-width="2560"
     inkscape:window-height="1366"
     inkscape:window-x="0"
     inkscape:window-y="50"
     inkscape:window-maximized="1"
     inkscape:current-layer="layer1"
     showguides="true"><sodipodi:guide
       position="256,395.82812"
       orientation="1,0"
       id="guide1"
       inkscape:locked="false" /><sodipodi:guide
       position="96.121094,256"
       orientation="0,-1"
       id="guide2"
       inkscape:locked="false" /></sodipodi:namedview><defs
     id="defs1" /><g
     inkscape:label="Layer 1"
     inkscape:groupmode="layer"
     id="layer1"><rect
       style="fill:#ffffff;fill-opacity:1;stroke:none;stroke-width:0"
       id="rect7"
       width="512"
       height="512"
       x="0"
       y="0" /><circle
       style="fill:#000000;fill-opacity:0;stroke:#000000;stroke-width:10.9997;stroke-dasharray:none;stroke-opacity:1"
       id="path1"
       cx="256"
       cy="256"
       r="250.50015" /><text
       xml:space="preserve"
       style="font-style:normal;font-variant:normal;font-weight:normal;font-stretch:normal;font-size:65px;font-family:'Miltonian Tattoo';-inkscape-font-specification:'Miltonian Tattoo';text-align:start;writing-mode:lr-tb;direction:ltr;text-anchor:start;fill:#1c1d52;stroke:none;stroke-width:0"
       x="124.53743"
       y="429.65686"
       id="text3"><tspan
         sodipodi:role="line"
         id="tspan3"
         x="124.53743"
         y="429.65686"
         style="font-size:65px;fill:#24a0e4;fill-opacity:1;stroke:none">Connect</tspan></text><text
       xml:space="preserve"
       style="font-style:normal;font-variant:normal;font-weight:normal;font-stretch:normal;font-size:75px;font-family:'Miltonian Tattoo';-inkscape-font-specification:'Miltonian Tattoo';text-align:start;writing-mode:lr-tb;direction:ltr;text-anchor:start;fill:#090a42;stroke:none;stroke-width:0;fill-opacity:1"
       x="70.712433"
       y="378.1922"
       id="text3-2"><tspan
         sodipodi:role="line"
         id="tspan3-9"
         x="70.712433"
         y="378.1922"
         style="font-size:75px;fill:#090a42;fill-opacity:1;stroke:none">FoodBank</tspan></text><path
       style="display:inline;fill:#8fb951;fill-opacity:1;stroke:#000000;stroke-width:0"
       d="m 305.07461,292.06993 c -1.38583,0 -32.98265,23.55903 -79.82354,9.14645 -46.84091,-14.41258 -67.07395,-57.65034 -68.18262,-59.31333 -1.10866,-1.66299 -28.548,-51.5527 -0.27716,-103.10541 28.27084,-51.552704 97.28494,-68.736937 97.28494,-68.736937 0,0 4.43464,58.204667 -15.79841,102.551077 -20.23305,44.34641 -59.59049,42.96059 -59.59049,42.96059 0,0 -5.82047,-47.11807 40.74326,-103.10541 -33.77313,31.39786 -48.33652,57.99754 -49.88971,95.79247 2.21732,60.69916 60.14482,94.34278 87.58417,93.51128 27.43934,-0.83149 47.94956,-9.70078 47.94956,-9.70078 z"
       id="path3"
       sodipodi:nodetypes="cssscsccssc" /><path
       style="fill:#3b99cd;fill-opacity:1;stroke:#000000;stroke-width:0"
       d="m 187.9931,248.16058 c 0,0 13.2779,-11.05092 28.22188,-15.48284 19.43269,-5.76312 27.03043,-2.28055 32.40891,-1.63717 10.28097,2.0511 14.51356,3.86734 21.9602,4.36908 11.74196,0.79115 14.50993,-0.0728 21.43374,1.78764 9.70361,2.60728 8.85693,5.78318 8.8628,7.23957 0.0188,4.64012 -4.11067,7.16347 -11.36713,8.03541 -6.81082,0.81838 -13.66834,0.70923 -20.50918,0.7503 C 258.85437,253.28357 256,256 256,256 c 0,0 15.34537,3.68934 23.16974,3.76923 15.54305,0.1587 26.29117,-5.11293 36.20193,-14.31881 7.53312,-6.99735 12.38415,-16.80547 17.0626,-19.63216 2.7586,-1.66672 6.3528,-4.42865 9.21131,-2.93978 3.84474,2.00256 6.85788,3.07372 2.17962,11.52951 -16.17181,29.23001 -24.16666,33.20031 -29.65322,37.30649 -9.02901,6.75736 -18.97216,12.0925 -29.75411,14.27127 -10.57804,2.13756 -21.59598,-0.52746 -32.33757,-1.56788 -7.90452,-0.76563 -15.66232,-2.76612 -23.57564,-3.43466 -4.01806,-0.33947 -5.11659,-0.86412 -12.09369,-0.28906 -19.41246,-13.94167 -28.41787,-32.53357 -28.41787,-32.53357 z"
       id="path4"
       sodipodi:nodetypes="cscssssscssssssaaacc" /><path
       style="fill:#e8613b;fill-opacity:1;stroke:#000000;stroke-width:0"
       d="m 256.37608,141.30606 c 14.35003,1.35962 16.30254,6.02547 24.80628,5.95905 6.12838,-0.0479 11.94599,-2.78495 17.80785,-4.57322 7.1478,-2.18057 15.07494,-1.21802 20.09447,0.69291 9.68781,3.68814 14.81123,13.34782 17.4614,22.45037 3.42429,11.76148 0.49582,24.99383 -3.46456,36.5858 -3.79942,11.12082 -10.2529,21.77989 -18.84723,29.79524 -2.95499,2.75592 -3.55469,3.46738 -10.67085,5.75117 -4.88754,-4.707 -6.46375,-4.92736 -10.25511,-6.16692 -3.26755,-1.06829 -16.02831,-0.87373 -23.97478,-1.94016 -5.93995,-0.79714 -11.75865,-2.33457 -17.66928,-3.32598 -2.18736,-0.3669 -4.5796,-0.63769 -6.58267,-0.97007 -8.16216,-8.86204 -11.8396,-20.1286 -15.24407,-29.44879 22.43476,-22.28179 25.43773,-50.33927 26.53855,-54.8094 z"
       id="path5"
       sodipodi:nodetypes="cassaaacsaaccc" /><path
       style="fill:#6b3d2c;fill-opacity:1;stroke:#000000;stroke-width:0"
       d="m 279.26485,143.17335 c 0,0 -1.2739,-14.11094 -13.62098,-21.21541 -0.63695,-3.33175 4.43946,-5.25584 5.97756,-5.29161 2.10683,-0.049 11.26915,12.15109 10.92617,26.55601 -1.76387,-0.049 -3.28275,-0.049 -3.28275,-0.049 z"
       id="path6"
       sodipodi:nodetypes="ccsccc" /><path
       style="fill:#93b953;fill-opacity:1;stroke:#000000;stroke-width:0"
       d="m 283.99817,135.66969 c 0,0 -3.46456,-32.63619 36.30863,-32.91336 -1.87087,39.49603 -36.30863,32.91336 -36.30863,32.91336 z"
       id="path7"
       sodipodi:nodetypes="ccc" /></g></svg>
